<svg width="50" height="50" viewBox="0 0 50 50" fill="none" xmlns="http://www.w3.org/2000/svg">
<path d="M50 25C50 11.1929 38.8071 0 25 0C11.1929 0 0 11.1929 0 25C0 38.8071 11.1929 50 25 50C38.8071 50 50 38.8071 50 25Z" fill="#4766EA"/>
<path d="M17.9688 18.0233L16.9067 19.7812H14.4531C14.4531 18.0234 16.2109 15.0938 20.3125 15.0938C23.5352 15.0938 25.293 16.9248 25.9155 18.5361C26.8311 17.9136 28.0762 17.4375 29.6875 17.4375C33.7891 17.4375 35.5469 20.3672 35.5469 22.125H33.0566L32.0312 20.3672L30.9692 22.125H27.0142C27.3804 23.187 27.6733 24.3589 27.8931 25.5674C28.3325 27.9844 28.5156 30.6576 28.186 33.0746L28.1128 33.8438H27.3438H22.9492H21.7407L22.1069 32.7085C23.2422 29.0464 23.4619 26.373 23.3154 24.542C23.2422 23.9927 23.1689 23.5166 23.0957 23.1504L18.042 28.1674C16.7969 26.9223 15.9546 23.6265 18.8843 20.7334C19.0308 20.5869 19.1772 20.4403 19.3237 20.2938L17.9688 18.0233ZM25.1465 22.125H24.6338C24.8169 22.7476 24.9634 23.5166 25.0366 24.3955C25.2197 26.2632 25.0366 28.8266 24.1211 32.0858H26.5381C26.6846 30.0717 26.5381 27.911 26.1719 25.8969C25.9155 24.5053 25.5493 23.2236 25.1465 22.125Z" fill="url(#paint0_linear_3544_213425)"/>
<defs>
<linearGradient id="paint0_linear_3544_213425" x1="25" y1="15.0937" x2="25" y2="33.8438" gradientUnits="userSpaceOnUse">
<stop offset="0.18" stop-color="white"/>
<stop offset="1" stop-color="white" stop-opacity="0.65"/>
</linearGradient>
</defs>
</svg>
