<svg width="50" height="50" viewBox="0 0 50 50" fill="none" xmlns="http://www.w3.org/2000/svg">
<path d="M50 25C50 11.1929 38.8071 0 25 0C11.1929 0 0 11.1929 0 25C0 38.8071 11.1929 50 25 50C38.8071 50 50 38.8071 50 25Z" fill="#4766EA"/>
<path d="M34.0187 21.2667C34.0187 19.3954 32.5005 17.8772 30.6292 17.8772C29.3581 17.8772 28.2636 18.5834 27.6634 19.572H25.8275C26.5336 17.6301 28.4049 16.1825 30.6292 16.1825C33.4184 16.1825 35.7134 18.4775 35.7134 21.2667C35.7134 24.0913 33.4184 26.3509 30.6292 26.3509C29.6053 26.3509 28.6873 26.0684 27.9106 25.5741L29.1463 24.3384C29.6053 24.5502 30.0996 24.6562 30.6292 24.6562C32.5005 24.6562 34.0187 23.138 34.0187 21.2667ZM16.5064 20.7018H16.6123H17.0713H28.3696H28.7932H28.9345H30.0643V21.8316L29.4994 22.3965L23.8856 28.0103L23.5678 28.3281V32.5649H26.6748V34.2596H23.5678H22.7204H18.7661V32.5649H21.8731V28.3281L21.52 28.0103L15.9415 22.3965L15.3766 21.8316V20.7018H16.5064ZM18.3071 22.3965L22.7204 26.8099L27.0985 22.3965H18.3071Z" fill="url(#paint0_linear_893_69)"/>
<defs>
<linearGradient id="paint0_linear_893_69" x1="25.545" y1="15" x2="25.545" y2="34.5836" gradientUnits="userSpaceOnUse">
<stop stop-color="white"/>
<stop offset="1" stop-color="white" stop-opacity="0.65"/>
</linearGradient>
</defs>
</svg>
