<svg width="50" height="50" viewBox="0 0 50 50" fill="none" xmlns="http://www.w3.org/2000/svg">
<path d="M50 25C50 11.1929 38.8071 0 25 0C11.1929 0 0 11.1929 0 25C0 38.8071 11.1929 50 25 50C38.8071 50 50 38.8071 50 25Z" fill="#00A7CC"/>
<path d="M26.1719 15.0938H27.0508H28.6621C30.4932 15.0938 32.0312 16.6318 32.0312 18.4629C32.0312 20.3306 30.4932 21.832 28.6621 21.832H16.5039H15.625V20.0742H16.5039H28.6621C29.541 20.0742 30.2734 19.3784 30.2734 18.4629C30.2734 17.584 29.541 16.8516 28.6621 16.8516H27.0508H26.1719V15.0938ZM28.5156 30.3281V28.5703H29.3945H31.0059C31.8848 28.5703 32.6172 27.8745 32.6172 26.959C32.6172 26.0801 31.8848 25.3477 31.0059 25.3477H16.5039H15.625V23.5898H16.5039H31.0059C32.8369 23.5898 34.375 25.1279 34.375 26.959C34.375 28.8267 32.8369 30.3281 31.0059 30.3281H29.3945H28.5156ZM20.0195 33.8438H19.1406V32.0859H20.0195H21.6309C22.5098 32.0859 23.2422 31.3901 23.2422 30.4746C23.2422 29.5957 22.5098 28.8633 21.6309 28.8633H16.5039H15.625V27.1055H16.5039H21.6309C23.4619 27.1055 25 28.6436 25 30.4746C25 32.3423 23.4619 33.8438 21.6309 33.8438H20.0195Z" fill="url(#paint0_linear_1127_15687)"/>
<defs>
<linearGradient id="paint0_linear_1127_15687" x1="25" y1="15.0938" x2="25" y2="33.8438" gradientUnits="userSpaceOnUse">
<stop offset="0.18" stop-color="white"/>
<stop offset="1" stop-color="white" stop-opacity="0.65"/>
</linearGradient>
</defs>
</svg>
