<svg width="50" height="50" viewBox="0 0 50 50" fill="none" xmlns="http://www.w3.org/2000/svg">
<g clip-path="url(#clip0_3544_213426)">
<path d="M50 25C50 11.1929 38.8071 0 25 0C11.1929 0 0 11.1929 0 25C0 38.8071 11.1929 50 25 50C38.8071 50 50 38.8071 50 25Z" fill="#4766EA"/>
<path d="M30.2734 22.125C30.2734 19.2319 27.8931 16.8516 25 16.8516C22.9492 16.8516 21.1548 18.0234 20.2759 19.7446L22.2169 21.2094C22.5831 20.0375 23.6816 19.1952 25 19.1952C26.6113 19.1952 27.9298 20.5137 27.9298 22.125C27.9298 23.187 27.3804 24.0659 26.5747 24.6152L28.6255 26.1898C28.8818 25.7504 29.1383 25.3109 29.358 24.9081C29.9806 23.663 30.2734 22.7476 30.2734 22.125ZM18.8843 18.646C20.0928 16.522 22.3633 15.0938 25 15.0938C28.8818 15.0938 32.0312 18.2432 32.0312 22.125C32.0312 23.5898 31.1523 25.4575 30.0171 27.2886L35.9864 31.9395L36.6821 32.452L35.6201 33.8438L34.9244 33.3311L13.9771 17.0347L13.2812 16.4853L14.3433 15.1304L15.0391 15.6431L18.8843 18.646ZM24.8902 23.2969C24.9269 23.2969 24.9634 23.2969 25 23.2969C25.6226 23.2969 26.1719 22.7842 26.1719 22.125C26.1719 21.5024 25.6226 20.9531 25 20.9531C24.3408 20.9531 23.8281 21.5024 23.8281 22.125C23.8281 22.2715 23.8281 22.3813 23.8647 22.5278L24.8902 23.2969ZM20.6055 24.9081C21.228 26.08 22.0337 27.3252 22.876 28.4971C23.645 29.5225 24.3774 30.4746 25 31.1704C25.4761 30.6211 26.0254 29.9253 26.6113 29.1562L28.0029 30.2183C27.3071 31.1338 26.6846 31.9027 26.1353 32.5253C25.4395 33.3676 25 33.8438 25 33.8438C25 33.8438 24.5239 33.3676 23.8281 32.5253C21.8506 30.2182 18.1152 25.3843 17.9688 22.3081L20.2393 24.1392C20.3491 24.3589 20.4956 24.6151 20.6055 24.9081Z" fill="url(#paint0_linear_3544_213426)"/>
</g>
<defs>
<linearGradient id="paint0_linear_3544_213426" x1="24.9817" y1="15.0937" x2="24.9817" y2="33.8438" gradientUnits="userSpaceOnUse">
<stop offset="0.18" stop-color="#FEFEFE"/>
<stop offset="1" stop-color="#FEFEFE" stop-opacity="0.6"/>
</linearGradient>
<clipPath id="clip0_3544_213426">
<rect width="50" height="50" fill="white"/>
</clipPath>
</defs>
</svg>
