<svg width="40" height="20" viewBox="0 0 40 20" fill="none" xmlns="http://www.w3.org/2000/svg">
<g clip-path="url(#clip0_2761_34178)">
<path d="M20 10C20 4.47715 15.5228 0 10 0C4.47715 0 0 4.47715 0 10C0 15.5228 4.47715 20 10 20C15.5228 20 20 15.5228 20 10Z" fill="#4766EA"/>
<path d="M9.06249 7.79491C9.06249 7.42871 8.85745 7.07711 8.53517 6.88671C8.19825 6.69627 7.80273 6.69627 7.48049 6.88671C7.14357 7.07711 6.95313 7.42871 6.95313 7.79491C6.95313 8.17575 7.14357 8.52731 7.48049 8.71775C7.80273 8.90819 8.19825 8.90819 8.53517 8.71775C8.85745 8.52731 9.06249 8.17575 9.06249 7.79491ZM10.8203 9.55271H8.00781C7.02637 9.55271 6.25001 8.77635 6.25001 7.79491C6.25001 6.82811 7.02637 6.03711 8.00781 6.03711C8.57913 6.03711 9.09181 6.31543 9.41409 6.74023C9.72169 6.31543 10.2344 6.03711 10.8203 6.03711C11.7871 6.03711 12.5781 6.82811 12.5781 7.79491C12.5781 8.77635 11.7871 9.55271 10.8203 9.55271ZM9.76565 7.79491C9.76565 8.17575 9.95605 8.52731 10.293 8.71775C10.6153 8.90819 11.0108 8.90819 11.3477 8.71775C11.6699 8.52731 11.875 8.17575 11.875 7.79491C11.875 7.42871 11.6699 7.07711 11.3477 6.88671C11.0108 6.69627 10.6153 6.69627 10.293 6.88671C9.95605 7.07711 9.76565 7.42871 9.76565 7.79491ZM8.24221 10.7246H7.89065H7.42189V12.8339H11.1719V10.7246H8.24221ZM8.24221 10.0215H11.1719H11.875V10.7246V12.8339V13.5371H11.1719H7.42189H6.71877V12.8339V10.7246H6.13281H5.78125V10.0215H6.13281H6.71877H7.42189H7.89065H8.24221ZM12.3438 12.8925V12.1455L13.5157 12.5556V10.7832L12.3438 11.1933V10.4463L13.5157 10.0361L14.2188 9.78711V10.5341V12.8047V13.5371L13.5157 13.3027L12.3438 12.8925Z" fill="url(#paint0_linear_2761_34178)"/>
<path d="M30 10C30 4.47715 25.5228 0 20 0C14.4772 0 10 4.47715 10 10C10 15.5228 14.4772 20 20 20C25.5228 20 30 15.5228 30 10Z" fill="#4766EA"/>
<path d="M20.4688 7.20895C20.4688 6.95995 20.249 6.74023 20 6.74023C19.7363 6.74023 19.5313 6.95995 19.5313 7.20895C19.5313 7.47263 19.7363 7.67771 20 7.67771C20.249 7.67771 20.4688 7.47263 20.4688 7.20895ZM20 6.03711C20.6445 6.03711 21.1719 6.56443 21.1719 7.20895C21.1719 7.73631 20.8203 8.19043 20.3369 8.33691C20.3369 8.35155 20.3516 8.36619 20.3516 8.38083V8.84959H21.0547H21.4063V9.55271H21.0547H20.3516V12.8339H22.4609V11.1933H21.4063L22.8125 9.78711L24.2188 11.1933H23.1641V13.1855V13.5371H22.8125H20H17.1875H16.8359V13.1855V11.1933H15.7812L17.1875 9.78711L18.5938 11.1933H17.5391V12.8339H19.6484V9.55271H18.9453H18.5938V8.84959H18.9453H19.6484V8.38083C19.6484 8.36619 19.6484 8.35155 19.6484 8.33691C19.165 8.19043 18.8281 7.73631 18.8281 7.20895C18.8281 6.56443 19.3408 6.03711 20 6.03711Z" fill="url(#paint1_linear_2761_34178)"/>
<path d="M40 10C40 4.47715 35.5228 0 30 0C24.4772 0 20 4.47715 20 10C20 15.5228 24.4772 20 30 20C35.5228 20 40 15.5228 40 10Z" fill="#4766EA"/>
<path d="M27.1875 7.20895L26.7627 7.91207H25.7812C25.7812 7.20895 26.4844 6.03711 28.125 6.03711C29.4141 6.03711 30.1172 6.76951 30.3662 7.41403C30.7325 7.16503 31.2305 6.97459 31.875 6.97459C33.5157 6.97459 34.2188 8.14647 34.2188 8.84959H33.2226L32.8125 8.14647L32.3877 8.84959H30.8057C30.9522 9.27439 31.0693 9.74315 31.1573 10.2265C31.333 11.1933 31.4063 12.2627 31.2744 13.2295L31.2451 13.5371H30.9375H29.1797H28.6963L28.8428 13.083C29.2969 11.6181 29.3848 10.5488 29.3262 9.81639C29.2969 9.59667 29.2676 9.40623 29.2383 9.25975L27.2168 11.2666C26.7188 10.7685 26.3819 9.45019 27.5537 8.29295C27.6123 8.23435 27.6709 8.17575 27.7295 8.11715L27.1875 7.20895ZM30.0586 8.84959H29.8535C29.9268 9.09863 29.9854 9.40623 30.0147 9.75779C30.0879 10.5049 30.0146 11.5303 29.6484 12.8339H30.6152C30.6738 12.0283 30.6152 11.164 30.4688 10.3584C30.3662 9.80175 30.2197 9.28903 30.0586 8.84959Z" fill="url(#paint2_linear_2761_34178)"/>
</g>
<defs>
<linearGradient id="paint0_linear_2761_34178" x1="10" y1="6.03711" x2="10" y2="13.5371" gradientUnits="userSpaceOnUse">
<stop offset="0.18" stop-color="white"/>
<stop offset="1" stop-color="white" stop-opacity="0.65"/>
</linearGradient>
<linearGradient id="paint1_linear_2761_34178" x1="20" y1="6.03711" x2="20" y2="13.5371" gradientUnits="userSpaceOnUse">
<stop offset="0.18" stop-color="white"/>
<stop offset="1" stop-color="white" stop-opacity="0.65"/>
</linearGradient>
<linearGradient id="paint2_linear_2761_34178" x1="30" y1="6.03711" x2="30" y2="13.5371" gradientUnits="userSpaceOnUse">
<stop offset="0.18" stop-color="white"/>
<stop offset="1" stop-color="white" stop-opacity="0.65"/>
</linearGradient>
<clipPath id="clip0_2761_34178">
<rect width="40" height="20" fill="white"/>
</clipPath>
</defs>
</svg>
