<svg width="40" height="20" viewBox="0 0 40 20" fill="none" xmlns="http://www.w3.org/2000/svg">
<g clip-path="url(#clip0_1127_15813)">
<path d="M20 10C20 4.47715 15.5228 0 10 0C4.47715 0 0 4.47715 0 10C0 15.5228 4.47715 20 10 20C15.5228 20 20 15.5228 20 10Z" fill="#00A7CC"/>
<path d="M10.4688 6.03752H10.8203H11.4648C12.1973 6.03752 12.8125 6.65272 12.8125 7.38516C12.8125 8.13224 12.1973 8.7328 11.4648 8.7328H6.60156H6.25V8.02968H6.60156H11.4648C11.8164 8.02968 12.1094 7.75136 12.1094 7.38516C12.1094 7.0336 11.8164 6.74064 11.4648 6.74064H10.8203H10.4688V6.03752ZM11.4062 12.1312V11.4281H11.7578H12.4024C12.7539 11.4281 13.0469 11.1498 13.0469 10.7836C13.0469 10.432 12.7539 10.1391 12.4024 10.1391H6.60156H6.25V9.43592H6.60156H12.4024C13.1348 9.43592 13.75 10.0512 13.75 10.7836C13.75 11.5307 13.1348 12.1312 12.4024 12.1312H11.7578H11.4062ZM8.0078 13.5375H7.65624V12.8344H8.0078H8.65236C9.00392 12.8344 9.29688 12.556 9.29688 12.1898C9.29688 11.8383 9.00392 11.5453 8.65236 11.5453H6.60156H6.25V10.8422H6.60156H8.65236C9.38476 10.8422 10 11.4574 10 12.1898C10 12.9369 9.38476 13.5375 8.65236 13.5375H8.0078Z" fill="url(#paint0_linear_1127_15813)"/>
<path d="M30 10C30 4.47715 25.5228 0 20 0C14.4772 0 10 4.47715 10 10C10 15.5228 14.4772 20 20 20C25.5228 20 30 15.5228 30 10Z" fill="#00A7CC"/>
<path d="M17.4219 6.03752V6.38908V6.7992L18.667 6.4916C19.2236 6.35976 19.8096 6.41836 20.3223 6.68204C20.9961 7.01896 21.8017 7.01896 22.4756 6.68204L22.5781 6.62344L23.2812 6.27188V7.06288V7.98576V8.7328V9.50916V10.2562V11.6625L22.4609 11.9701C21.7871 12.2338 21.0254 12.1898 20.3808 11.8676C19.8242 11.5892 19.1943 11.516 18.5938 11.6625L17.4219 11.9555V13.1859V13.5375H16.7188V13.1859V12.1312V11.4135V10.6371V9.90468V9.23084V8.49844V6.975V6.38908V6.03752H17.4219ZM17.4219 9.74356L18.418 9.52384C19.0039 9.37736 19.6045 9.42128 20.1758 9.61172L20.791 9.83144C21.333 10.0219 21.919 10.0072 22.4609 9.8168L22.5781 9.77284V8.99648C21.9482 9.2162 21.2597 9.23084 20.6299 9.04044L19.8975 8.82072C19.4873 8.70352 19.0625 8.68888 18.6377 8.77676L17.4219 9.06972V9.74356ZM19.2969 7.12148V8.01504C19.5606 8.02968 19.8389 8.07364 20.1025 8.14688L20.8203 8.3666C21.3476 8.51308 21.8896 8.49844 22.4023 8.308L22.5781 8.2494V7.3998C21.7431 7.73672 20.8057 7.70744 20.0146 7.31192C19.7803 7.19472 19.5312 7.13612 19.2969 7.12148ZM22.5781 10.5199C21.9189 10.725 21.2012 10.725 20.5566 10.4906L19.9414 10.2709C19.502 10.1244 19.0332 10.0951 18.5791 10.1976L17.4219 10.476V11.2377L18.418 10.9887C19.1797 10.7982 20 10.8861 20.7031 11.2377C21.1719 11.4721 21.7139 11.5014 22.2119 11.3109L22.5781 11.1791V10.5199ZM18.125 7.56092C18.125 7.44376 18.0078 7.32656 17.8906 7.32656C17.7588 7.32656 17.6562 7.44376 17.6562 7.56092C17.6562 7.69276 17.7588 7.79532 17.8906 7.79532C18.0078 7.79532 18.125 7.69276 18.125 7.56092ZM18.5938 7.56092C18.7109 7.56092 18.8281 7.4584 18.8281 7.32656C18.8281 7.20936 18.7109 7.0922 18.5938 7.0922C18.4619 7.0922 18.3593 7.20936 18.3593 7.32656C18.3593 7.4584 18.4619 7.56092 18.5938 7.56092ZM18.125 8.26408C18.125 8.14688 18.0078 8.02968 17.8906 8.02968C17.7588 8.02968 17.6562 8.14688 17.6562 8.26408C17.6562 8.39588 17.7588 8.49844 17.8906 8.49844C18.0078 8.49844 18.125 8.39588 18.125 8.26408ZM18.5938 8.26408C18.7109 8.26408 18.8281 8.16152 18.8281 8.02968C18.8281 7.91248 18.7109 7.79532 18.5938 7.79532C18.4619 7.79532 18.3593 7.91248 18.3593 8.02968C18.3593 8.16152 18.4619 8.26408 18.5938 8.26408Z" fill="url(#paint1_linear_1127_15813)"/>
<path d="M40 10C40 4.47715 35.5228 0 30 0C24.4772 0 20 4.47715 20 10C20 15.5228 24.4772 20 30 20C35.5228 20 40 15.5228 40 10Z" fill="#00A7CC"/>
<path d="M26.9531 12.3656H33.0469V12.2338L31.377 9.78752H30.1758L29.5752 10.5932L29.2969 10.9594L29.0186 10.5932L28.5058 9.94864L26.9531 12.2338V12.3656ZM30.8936 9.08436L30 7.766L28.9307 9.3334L29.2822 9.80216L29.707 9.23084L29.8242 9.08436H30H30.8936ZM30 6.50624L30.4248 7.13612L33.75 12.0141V12.3656V13.0688H33.0469H26.9531H26.25V12.3656V12.0141L29.5752 7.13612L30 6.50624Z" fill="url(#paint2_linear_1127_15813)"/>
</g>
<defs>
<linearGradient id="paint0_linear_1127_15813" x1="10" y1="6.03752" x2="10" y2="13.5375" gradientUnits="userSpaceOnUse">
<stop offset="0.18" stop-color="white"/>
<stop offset="1" stop-color="white" stop-opacity="0.65"/>
</linearGradient>
<linearGradient id="paint1_linear_1127_15813" x1="20" y1="6.03752" x2="20" y2="13.5375" gradientUnits="userSpaceOnUse">
<stop offset="0.18" stop-color="white"/>
<stop offset="1" stop-color="white" stop-opacity="0.65"/>
</linearGradient>
<linearGradient id="paint2_linear_1127_15813" x1="30" y1="6.50624" x2="30" y2="13.0688" gradientUnits="userSpaceOnUse">
<stop offset="0.18" stop-color="white"/>
<stop offset="1" stop-color="white" stop-opacity="0.65"/>
</linearGradient>
<clipPath id="clip0_1127_15813">
<rect width="40" height="20" fill="white"/>
</clipPath>
</defs>
</svg>
