<svg width="40" height="20" viewBox="0 0 40 20" fill="none" xmlns="http://www.w3.org/2000/svg">
<g clip-path="url(#clip0_2708_34351)">
<path d="M19.6971 12.419C18.3615 17.7762 12.9356 21.0365 7.57773 19.7006C2.22214 18.365 -1.03814 12.9387 0.29802 7.58197C1.63301 2.22419 7.05897 -1.03634 12.4151 0.299234C17.7726 1.63481 21.0327 7.0617 19.697 12.4191L19.6971 12.419H19.6971Z" fill="#F7931A"/>
<path d="M14.4069 8.57577C14.606 7.24498 13.5928 6.52964 12.2074 6.05243L12.6568 4.24977L11.5595 3.97634L11.122 5.73154C10.8335 5.65959 10.5372 5.5918 10.2428 5.52459L10.6835 3.7578L9.58681 3.48438L9.13712 5.28645C8.8984 5.2321 8.66392 5.17838 8.43644 5.12178L8.43771 5.11611L6.92446 4.73822L6.63256 5.91024C6.63256 5.91024 7.44669 6.09686 7.42953 6.10835C7.87389 6.21926 7.95425 6.51341 7.9409 6.74656L7.42894 8.80022C7.45954 8.80799 7.49923 8.81923 7.54303 8.83683C7.50642 8.82774 7.46746 8.81782 7.42704 8.80814L6.70944 11.685C6.65514 11.82 6.5173 12.0226 6.20662 11.9457C6.21762 11.9616 5.40906 11.7467 5.40906 11.7467L4.86426 13.0027L6.29226 13.3587C6.55792 13.4254 6.81825 13.4951 7.07462 13.5606L6.62053 15.3839L7.7166 15.6574L8.16628 13.8534C8.46572 13.9347 8.7563 14.0097 9.04078 14.0803L8.59261 15.8758L9.68999 16.1492L10.144 14.3293C12.0152 14.6835 13.4222 14.5407 14.0144 12.8482C14.4916 11.4855 13.9907 10.6996 13.0062 10.187C13.7232 10.0217 14.2633 9.55007 14.4073 8.57591L14.407 8.57567L14.4069 8.57577ZM11.8998 12.0914C11.5606 13.4541 9.26636 12.7175 8.52252 12.5328L9.1251 10.1172C9.86889 10.3029 12.2542 10.6703 11.8998 12.0914H11.8998ZM12.2391 8.55602C11.9298 9.79549 10.0202 9.16579 9.40077 9.01138L9.9471 6.82057C10.5665 6.97498 12.5614 7.26317 12.2392 8.55602H12.2391Z" fill="white"/>
</g>
<rect x="9.99609" width="20" height="20" rx="10" fill="#EDEFF0"/>
<g clip-path="url(#clip1_2708_34351)">
<path d="M19.9932 4.13867L19.9146 4.40588V12.1589L19.9932 12.2374L23.592 10.1101L19.9932 4.13867Z" fill="#343434"/>
<path d="M19.9939 4.13867L16.395 10.1101L19.9939 12.2374V8.4743V4.13867Z" fill="#8C8C8C"/>
<path d="M19.9936 12.9192L19.9492 12.9732V15.735L19.9936 15.8644L23.5946 10.793L19.9936 12.9192Z" fill="#3C3C3B"/>
<path d="M19.9939 15.8644V12.9192L16.395 10.793L19.9939 15.8644Z" fill="#8C8C8C"/>
<path d="M19.9932 12.2377L23.592 10.1104L19.9932 8.47461V12.2377Z" fill="#141414"/>
<path d="M16.395 10.1104L19.9939 12.2377V8.47461L16.395 10.1104Z" fill="#393939"/>
</g>
<rect x="19.9961" width="20" height="20" rx="10" fill="black"/>
<g clip-path="url(#clip2_2708_34351)">
<path d="M26.6518 12.2062C26.7104 12.1475 26.7911 12.1133 26.8767 12.1133H34.6372C34.779 12.1133 34.8499 12.2844 34.7497 12.3847L33.2166 13.9177C33.1579 13.9764 33.0773 14.0106 32.9917 14.0106H25.2312C25.0894 14.0106 25.0185 13.8395 25.1187 13.7392L26.6518 12.2062Z" fill="url(#paint0_linear_2708_34351)"/>
<path d="M26.6518 6.48158C26.7129 6.4229 26.7936 6.38867 26.8767 6.38867H34.6372C34.779 6.38867 34.8499 6.55982 34.7497 6.66007L33.2166 8.1931C33.1579 8.25178 33.0773 8.28601 32.9917 8.28601H25.2312C25.0894 8.28601 25.0185 8.11485 25.1187 8.01461L26.6518 6.48158Z" fill="url(#paint1_linear_2708_34351)"/>
<path d="M33.2166 9.32533C33.1579 9.26665 33.0773 9.23242 32.9917 9.23242H25.2312C25.0894 9.23242 25.0185 9.40357 25.1187 9.50382L26.6518 11.0368C26.7104 11.0955 26.7911 11.1298 26.8767 11.1298H34.6372C34.779 11.1298 34.8499 10.9586 34.7497 10.8584L33.2166 9.32533Z" fill="url(#paint2_linear_2708_34351)"/>
</g>
<defs>
<linearGradient id="paint0_linear_2708_34351" x1="33.8958" y1="5.4737" x2="28.525" y2="15.7611" gradientUnits="userSpaceOnUse">
<stop stop-color="#00FFA3"/>
<stop offset="1" stop-color="#DC1FFF"/>
</linearGradient>
<linearGradient id="paint1_linear_2708_34351" x1="31.5474" y1="4.2468" x2="26.1765" y2="14.5342" gradientUnits="userSpaceOnUse">
<stop stop-color="#00FFA3"/>
<stop offset="1" stop-color="#DC1FFF"/>
</linearGradient>
<linearGradient id="paint2_linear_2708_34351" x1="32.7141" y1="4.85613" x2="27.3433" y2="15.1435" gradientUnits="userSpaceOnUse">
<stop stop-color="#00FFA3"/>
<stop offset="1" stop-color="#DC1FFF"/>
</linearGradient>
<clipPath id="clip0_2708_34351">
<rect width="19.9978" height="20" fill="white" transform="translate(-0.00146484)"/>
</clipPath>
<clipPath id="clip1_2708_34351">
<rect width="7.19991" height="11.7255" fill="white" transform="translate(16.396 4.13672)"/>
</clipPath>
<clipPath id="clip2_2708_34351">
<rect width="9.72384" height="7.62112" fill="white" transform="translate(25.0723 6.38867)"/>
</clipPath>
</defs>
</svg>
