<svg width="50" height="50" viewBox="0 0 50 50" fill="none" xmlns="http://www.w3.org/2000/svg">
<path d="M50 25C50 11.1929 38.8071 0 25 0C11.1929 0 0 11.1929 0 25C0 38.8071 11.1929 50 25 50C38.8071 50 50 38.8071 50 25Z" fill="#4766EA"/>
<path d="M20.6787 19.5615L20.3491 22.1982C21.4844 22.3447 22.5831 22.8208 23.4986 23.5532L24.6705 24.4688H29.4678L28.2593 18.2798L20.6787 19.5615ZM33.7892 29.7422C34.4117 29.7422 34.9609 29.2295 34.9609 28.5703C34.9609 27.2886 33.8989 26.1533 32.5439 25.2012C32.1045 24.9082 31.6284 24.6519 31.2256 24.4321L32.251 29.7422H33.7892ZM29.6875 16.2656L30.8228 22.3081C31.0059 22.3813 31.2257 22.4546 31.5187 22.6011C32.068 22.8574 32.8003 23.2603 33.5327 23.7729C34.9609 24.7251 36.7188 26.373 36.7188 28.5703C36.7188 30.2183 35.4005 31.5 33.7892 31.5H30.8594H30.2734H14.1602H13.2812V30.6211V28.4238C13.2812 25.2744 15.5519 22.6743 18.5548 22.2349L19.1406 18.0234L29.6875 16.2656ZM15.0391 28.4238V29.7422H28.3692L22.4 24.9082C21.5943 24.249 20.5689 23.8828 19.5436 23.8828C17.0533 23.8828 15.0391 25.9336 15.0391 28.4238Z" fill="url(#paint0_linear_3544_213431)"/>
<defs>
<linearGradient id="paint0_linear_3544_213431" x1="25" y1="16.2656" x2="25" y2="31.5" gradientUnits="userSpaceOnUse">
<stop offset="0.18" stop-color="white"/>
<stop offset="1" stop-color="white" stop-opacity="0.65"/>
</linearGradient>
</defs>
</svg>
